<?xml version="1.0" standalone="no"?>
<!DOCTYPE svg PUBLIC "-//W3C//DTD SVG 20010904//EN"
 "http://www.w3.org/TR/2001/REC-SVG-20010904/DTD/svg10.dtd">
<svg version="1.0" xmlns="http://www.w3.org/2000/svg"
 width="300.000000pt" height="300.000000pt" viewBox="0 0 300.000000 300.000000"
 preserveAspectRatio="xMidYMid meet">
<metadata>
Created by potrace 1.10, written by Peter Selinger 2001-2011
</metadata>
<g transform="translate(0.000000,300.000000) scale(0.100000,-0.100000)"
fill="#000000" stroke="none">
<path d="M1501 2768 c-5 -13 -41 -90 -79 -173 -81 -175 -50 -156 -296 -175
l-163 -13 -10 -28 c-11 -28 -7 -32 130 -161 78 -73 141 -137 141 -143 -1 -5
-20 -90 -44 -188 -23 -98 -40 -179 -38 -180 1 -1 12 -10 24 -20 20 -17 24 -16
115 36 52 29 128 72 170 95 l75 41 165 -99 c90 -55 166 -100 169 -100 3 1 14
9 26 18 l21 18 -37 189 c-21 105 -35 192 -31 195 4 3 69 59 145 125 130 112
137 121 132 149 -4 16 -7 30 -9 31 -1 1 -87 12 -192 24 -104 13 -191 26 -193
29 -2 4 -35 84 -75 177 -71 167 -73 170 -105 173 -26 3 -34 -1 -41 -20z m69
-74 c26 -60 25 -70 -6 -49 -23 15 -27 15 -50 0 -14 -9 -24 -11 -24 -5 0 20 45
100 57 100 2 0 13 -21 23 -46z m29 -197 c29 -72 57 -135 60 -139 8 -9 217 -38
273 -38 34 0 52 -13 29 -22 -5 -1 -58 -45 -118 -96 l-108 -93 26 -132 c14 -73
29 -142 33 -154 7 -22 -7 -33 -18 -14 -3 5 -60 41 -126 81 l-120 73 -62 -33
c-35 -19 -96 -53 -136 -77 -41 -24 -75 -43 -76 -43 -1 0 15 68 35 152 l37 152
-81 76 c-45 42 -97 90 -116 107 l-34 30 129 11 c71 7 141 12 155 12 24 0 32
12 90 140 35 77 66 140 69 140 3 0 29 -60 59 -133z m-499 -136 c0 -6 -4 -13
-10 -16 -14 -9 -13 -48 2 -63 7 -7 8 -12 3 -12 -14 0 -85 73 -85 87 0 9 15 13
45 13 25 0 45 -4 45 -9z m923 -7 c20 -4 37 -12 37 -19 0 -8 -18 -28 -41 -45
l-40 -32 7 26 c4 17 0 35 -10 51 -18 28 -16 29 47 19z m-774 -553 l31 -29 -34
-21 c-51 -32 -59 -28 -51 22 7 41 13 57 20 57 1 0 17 -13 34 -29z m603 -40 c4
-42 -7 -47 -51 -20 l-34 20 34 29 c37 31 45 27 51 -29z"/>
<path d="M769 2453 c-5 -15 -35 -82 -66 -149 l-55 -121 -127 -12 c-69 -6 -142
-11 -162 -11 -32 0 -37 -4 -45 -32 -9 -31 -7 -35 61 -98 38 -36 91 -85 118
-110 l48 -45 -35 -151 c-20 -84 -36 -156 -36 -162 0 -5 10 -17 23 -25 23 -15
30 -12 165 64 l142 79 140 -85 c140 -84 141 -85 166 -68 15 12 23 25 20 38 -3
11 -17 83 -32 159 l-27 139 32 29 32 28 -27 35 c-14 19 -29 35 -33 35 -4 0
-28 -22 -54 -48 l-47 -48 20 -103 c11 -57 22 -113 26 -123 4 -13 -24 0 -100
47 -58 36 -110 65 -114 65 -5 0 -56 -27 -113 -59 -57 -33 -104 -59 -105 -58
-1 1 12 56 28 122 l29 120 -93 86 -93 87 117 7 c65 4 123 12 131 19 14 12 97
187 97 205 0 25 16 8 34 -37 11 -26 32 -77 48 -113 l29 -65 70 -10 c61 -9 69
-8 69 7 0 9 3 31 6 48 6 31 6 31 -34 31 -23 0 -44 6 -49 13 -4 6 -35 75 -68
152 -59 136 -62 140 -93 143 -27 3 -34 -1 -43 -25z m73 -74 c25 -51 24 -65 -6
-46 -22 15 -26 15 -50 -4 -31 -25 -32 -16 -6 46 23 53 37 54 62 4z m-391 -285
c-16 -21 -18 -30 -10 -46 6 -11 9 -21 7 -23 -7 -8 -89 76 -83 85 3 6 29 10 56
10 l50 0 -20 -26z m157 -470 c6 -3 -69 -44 -80 -44 -10 0 -4 72 8 92 4 5 20
-3 38 -19 17 -15 32 -29 34 -29z m466 -6 c8 -47 -4 -53 -48 -27 -37 21 -47 39
-23 39 8 0 22 9 32 20 22 24 30 17 39 -32z"/>
<path d="M2224 2443 c-9 -21 -41 -89 -70 -150 l-53 -113 -37 0 c-29 0 -35 -3
-30 -16 3 -9 6 -29 6 -45 l0 -30 58 3 57 3 57 115 c54 109 57 113 67 88 6 -15
24 -59 41 -99 16 -39 30 -79 30 -88 0 -15 18 -20 130 -31 115 -12 150 -21 121
-32 -5 -1 -46 -34 -90 -72 -56 -48 -81 -76 -81 -92 0 -12 9 -66 20 -119 11
-53 20 -101 20 -106 0 -4 -22 7 -50 24 -123 80 -153 97 -164 97 -6 -1 -56 -27
-111 -59 -55 -32 -101 -57 -103 -56 -2 2 8 51 23 110 14 59 25 115 23 124 -2
9 -28 40 -59 68 l-55 53 -33 -34 -33 -34 44 -37 45 -36 -32 -138 c-18 -75 -35
-146 -39 -157 -4 -14 1 -27 18 -43 l24 -22 143 80 143 80 45 -27 c26 -14 88
-52 139 -84 90 -56 94 -57 118 -42 13 9 24 22 24 29 0 6 -13 79 -30 160 -16
81 -30 149 -30 150 0 0 54 48 121 105 114 98 120 106 115 134 -4 16 -7 30 -9
32 -1 1 -74 10 -161 21 l-160 18 -64 153 c-61 144 -66 152 -92 152 -22 0 -31
-7 -46 -37z m70 -56 c7 -19 17 -44 21 -57 l7 -23 -27 21 c-26 21 -30 21 -51 7
-34 -22 -36 -19 -17 23 33 73 46 78 67 29z m375 -283 c42 -9 39 -26 -10 -65
l-40 -32 6 35 c4 22 3 38 -4 42 -15 10 -14 26 3 26 7 0 28 -3 45 -6z m-639
-454 l31 -29 -33 -21 c-59 -36 -66 -25 -42 63 7 22 6 22 44 -13z m494 -2 c8
-30 8 -78 0 -78 -4 0 -24 10 -45 22 -39 22 -50 38 -26 38 8 0 22 9 32 20 23
26 31 25 39 -2z"/>
<path d="M60 1345 l0 -45 230 0 230 0 0 -485 0 -486 -227 1 -228 2 -3 -46 -3
-46 236 0 c250 0 281 5 305 49 6 13 10 199 10 531 l0 512 -29 29 -29 29 -246
0 -246 0 0 -45z"/>
<path d="M710 1228 l0 -46 173 -4 172 -4 190 -87 190 -87 218 0 219 0 29 -29
c36 -37 38 -79 5 -118 l-24 -28 -259 -5 -258 -5 -1 -43 -1 -43 261 3 261 3
350 149 c230 98 366 151 397 154 38 4 59 -1 102 -22 45 -22 97 -71 84 -80 -11
-8 -984 -521 -1081 -571 -118 -60 -119 -60 -205 -60 -82 1 -103 6 -367 92
-230 76 -296 93 -367 99 l-88 7 0 -50 0 -49 58 4 c53 4 89 -6 363 -94 298 -97
306 -99 399 -98 78 0 106 4 155 25 53 22 1103 573 1212 636 l41 24 -16 40
c-22 57 -86 125 -146 157 -43 23 -63 27 -131 26 -80 0 -82 -1 -350 -115 l-270
-116 -6 36 c-6 43 -30 89 -56 113 -46 42 -84 48 -302 48 l-210 0 -175 79 c-96
44 -192 85 -213 90 -21 6 -109 12 -196 14 l-157 2 0 -47z m2170 -303 c0 -12
-49 -39 -57 -32 -2 2 3 10 12 17 8 7 15 24 15 39 1 25 1 25 15 7 8 -11 15 -25
15 -31z m-873 -47 c13 -12 23 -25 23 -29 0 -8 -100 -52 -106 -46 -3 3 6 22 21
42 14 21 25 42 25 46 0 15 12 10 37 -13z"/>
<path d="M291 514 c-27 -34 -26 -50 4 -79 29 -30 58 -32 85 -5 39 39 11 110
-44 110 -15 0 -33 -11 -45 -26z"/>
</g>
</svg>
